<svg xmlns="http://www.w3.org/2000/svg" width="20" height="13" viewBox="0 0 20 13"><g id="email-svgrepo-com" transform="translate(0 -12.089)"><path id="Path_1" d="M17.557 12.089H2.443A2.4 2.4 0 0 0 0 14.428v8.322a2.4 2.4 0 0 0 2.443 2.339h15.114A2.4 2.4 0 0 0 20 22.75v-8.322a2.4 2.4 0 0 0-2.443-2.339Zm-1.194 1.526L10 17.54l-6.363-3.925Zm1.194 9.948H2.443a.833.833 0 0 1-.849-.813v-8.278l7.915 4.873.033.017.035.018a.943.943 0 0 0 .189.071h.02a.974.974 0 0 0 .214.026.959.959 0 0 0 .214-.026h.02a.949.949 0 0 0 .189-.071l.035-.018c.011-.006.022-.01.033-.017l7.915-4.873v8.278a.833.833 0 0 1-.849.813Z" data-name="Path 1"/></g></svg>