<svg xmlns="http://www.w3.org/2000/svg" width="51" height="50" fill="none" viewBox="0 0 51 50"><rect width="50" height="50" x=".5" fill="#0072B1" rx="25"/><g clip-path="url(#clip0_1661_15639)"><path fill="#fff" d="M19.65 17.917c0 1.15-.925 2.083-2.067 2.083a2.075 2.075 0 0 1-2.066-2.083c0-1.15.925-2.084 2.066-2.084 1.142 0 2.067.934 2.067 2.084Zm.017 3.75H15.5V35h4.167V21.667Zm6.651 0h-4.14V35h4.141v-6.999c0-3.892 5.024-4.21 5.024 0v7H35.5v-8.443c0-6.567-7.435-6.328-9.182-3.095v-1.796Z"/></g><defs><clipPath id="clip0_1661_15639"><path fill="#fff" d="M15.5 15h20v20h-20z"/></clipPath></defs></svg>