<svg xmlns="http://www.w3.org/2000/svg" width="51" height="50" fill="none" viewBox="0 0 51 50"><rect width="50" height="50" x=".5" fill="#E60023" rx="25"/><path fill="#fff" d="M31.32 17.05C29.945 15.727 28.04 15 25.957 15c-3.181 0-5.138 1.304-6.22 2.398-1.332 1.348-2.096 3.138-2.096 4.912 0 2.226.931 3.934 2.49 4.57.105.043.21.065.314.065.33 0 .59-.215.68-.56.053-.199.175-.688.228-.9.113-.419.021-.62-.226-.912-.451-.534-.661-1.165-.661-1.986 0-2.44 1.816-5.032 5.183-5.032 2.671 0 4.33 1.518 4.33 3.962 0 1.542-.331 2.97-.935 4.022-.42.73-1.156 1.601-2.288 1.601-.49 0-.93-.2-1.207-.551-.262-.332-.348-.76-.243-1.206.12-.504.282-1.03.439-1.538.286-.928.557-1.805.557-2.505 0-1.196-.735-2-1.83-2-1.391 0-2.481 1.413-2.481 3.217 0 .884.235 1.546.341 1.8l-1.414 5.99c-.115.486-.803 4.325.336 4.63 1.28.345 2.424-3.394 2.54-3.816.095-.344.425-1.643.628-2.442.617.596 1.612.998 2.58.998 1.825 0 3.466-.821 4.621-2.312 1.12-1.446 1.737-3.462 1.737-5.675 0-1.73-.743-3.437-2.038-4.68Z"/></svg>