<svg xmlns="http://www.w3.org/2000/svg" width="51" height="50" fill="none" viewBox="0 0 51 50"><rect width="50" height="50" x=".5" fill="#1DA1F2" rx="25"/><g clip-path="url(#clip0_1661_15617)"><path fill="#fff" fill-rule="evenodd" d="M21.79 33c7.547 0 11.675-6.157 11.675-11.495 0-.175 0-.349-.012-.522A8.264 8.264 0 0 0 35.5 18.89a8.271 8.271 0 0 1-2.356.636 4.07 4.07 0 0 0 1.804-2.235 8.304 8.304 0 0 1-2.606.981 4.154 4.154 0 0 0-5.806-.175 4.006 4.006 0 0 0-1.187 3.86 11.717 11.717 0 0 1-8.457-4.22 4.005 4.005 0 0 0 1.271 5.392 4.121 4.121 0 0 1-1.863-.505v.051c.001 1.923 1.378 3.579 3.292 3.96a4.145 4.145 0 0 1-1.852.068c.537 1.646 2.078 2.774 3.833 2.806a8.315 8.315 0 0 1-6.073 1.675 11.754 11.754 0 0 0 6.29 1.812" clip-rule="evenodd"/></g><defs><clipPath id="clip0_1661_15617"><path fill="#fff" d="M15.5 15h20v20h-20z"/></clipPath></defs></svg>