<svg xmlns="http://www.w3.org/2000/svg" width="51" height="50" fill="none" viewBox="0 0 51 50"><rect width="50" height="50" x=".5" fill="red" rx="25"/><g clip-path="url(#clip0_1661_15624)"><path fill="#fff" fill-rule="evenodd" d="M23.488 27.586v-5.612c1.993.938 3.536 1.843 5.36 2.82-1.505.834-3.367 1.77-5.36 2.792Zm11.103-8.403c-.344-.453-.93-.805-1.553-.922-1.833-.348-13.267-.349-15.099 0-.5.094-.945.32-1.328.673-1.611 1.496-1.106 9.518-.718 10.817.163.563.375.968.64 1.234.343.353.813.595 1.351.704 1.51.312 9.284.486 15.122.046a2.62 2.62 0 0 0 1.39-.71c1.49-1.49 1.388-9.963.195-11.842Z" clip-rule="evenodd"/></g><defs><clipPath id="clip0_1661_15624"><path fill="#fff" d="M15.5 15h20v20h-20z"/></clipPath></defs></svg>